<?xml version="1.0" encoding="UTF-8" standalone="no"?>
<!DOCTYPE svg PUBLIC "-//W3C//DTD SVG 1.1//EN" "http://www.w3.org/Graphics/SVG/1.1/DTD/svg11.dtd">
<svg version="1.1" xmlns="http://www.w3.org/2000/svg" xmlns:xlink="http://www.w3.org/1999/xlink" preserveAspectRatio="xMidYMid meet" width="500" height="500" viewBox="0 0 500 500"><defs><path d="M-9.63 -7.76L513.35 -7.76L513.35 509.89L-9.63 509.89L-9.63 -7.76Z" id="FncQm4CiO0"></path><path d="M234.57 293.36L194.14 316.24L184.03 355.07L189.35 386.46L218.08 418.38L259.58 427.96L315.44 410.94L328.21 364.12L308.52 316.24L273.41 276.33L234.57 293.36Z" id="S81DrnwTot"></path><path d="M16.44 252.93L90.44 252L159.61 245.65L221.34 233.67L186.31 193.69L164.37 141.19L182.74 91.89L232.07 70.76L283.98 80.86L317.95 116.23L322.25 176.29L281.78 212.48L230.95 236.19L271.9 275.98L223.94 293.91L186.94 329.34L182.71 383.07L228.47 428.23L286.75 426.59L322.35 385.94L319.41 328.8L282.19 278.31L390.74 256.93L487.76 254.42L489.41 487.55L14.32 491.8L16.44 252.93Z" id="Acihm5o6WV"></path><path d="M0 0L0.53 500.27L500.53 501.33L500.53 0.27L0 0Z" id="pAwQkyUadn"></path><path d="M0.52 252.74C83.73 253.69 180.74 255.8 269.54 216.42C358.34 177.05 316.4 70.98 237.39 76.27C158.37 81.57 126.39 173.27 248.48 259.09C370.57 344.9 323.85 429.33 257.53 429.33C191.21 429.33 142.91 334.77 223 298.74C303.08 262.71 382.95 254.66 477.61 253.78" id="LyjBUQKg2l"></path><path d="" id="AbHfUJCnzT"></path><path d="" id="iagBff1dYP"></path><path d="M367.42 167.15L312.86 111.29L257.62 167.42" id="svM2p9yVSf"></path><path d="M240.8 375.17L186.24 319.31L131 375.44" id="eqH0zsf48s"></path></defs><g visibility="visible"><g visibility="visible"><g><use xlink:href="#FncQm4CiO0" opacity="1" fill="#ffffff" fill-opacity="1"></use></g><g><use xlink:href="#S81DrnwTot" opacity="1" fill="#ffffff" fill-opacity="1"></use></g><g><use xlink:href="#Acihm5o6WV" opacity="1" fill="#c7c7c7" fill-opacity="1"></use></g><g><g><use xlink:href="#pAwQkyUadn" opacity="1" fill-opacity="0" stroke="#000000" stroke-width="50" stroke-opacity="1"></use></g></g><g><g><use xlink:href="#LyjBUQKg2l" opacity="1" fill-opacity="0" stroke="#000000" stroke-width="35" stroke-opacity="1"></use></g></g><g><g><use xlink:href="#AbHfUJCnzT" opacity="1" fill-opacity="0" stroke="#000000" stroke-width="15" stroke-opacity="1"></use></g></g><g><g><use xlink:href="#iagBff1dYP" opacity="1" fill-opacity="0" stroke="#000000" stroke-width="1" stroke-opacity="1"></use></g></g><g><g><use xlink:href="#svM2p9yVSf" opacity="1" fill-opacity="0" stroke="#000000" stroke-width="20" stroke-opacity="1"></use></g></g><g><g><use xlink:href="#eqH0zsf48s" opacity="1" fill-opacity="0" stroke="#000000" stroke-width="20" stroke-opacity="1"></use></g></g></g></g></svg>