<?xml version="1.0" encoding="UTF-8" standalone="no"?>
<!DOCTYPE svg PUBLIC "-//W3C//DTD SVG 1.1//EN" "http://www.w3.org/Graphics/SVG/1.1/DTD/svg11.dtd">
<svg version="1.1" xmlns="http://www.w3.org/2000/svg" xmlns:xlink="http://www.w3.org/1999/xlink" preserveAspectRatio="xMidYMid meet" width="500" height="500" viewBox="0 0 500 500"><defs><path d="M0 0 L0.5319148936169569 500.2659574468085 L500.5319148936169 501.3297872340426 L500.5319148936169 0.2659574468084358 L0 0  Z " id="twfv8ueODj"></path><path d="M0.521634015881304 252.73717640400483 C83.72760456335385 253.68864794756223 180.74196581352487 255.79640966589855 269.53945499503567 216.42183406064538 C358.33694417654647 177.0472584553922 316.4039094579828 70.98115980791009 237.3864448321537 76.27441044655792 C158.3689802063246 81.56766108520576 126.38895159547235 173.27130277442217 248.477150942128 259.0869211557668 C370.56535028878363 344.9025395371114 323.8516847751808 429.33464371650774 257.53062956439913 429.33464371650774 C191.20957435361748 429.33464371650774 142.9082876858298 334.76982645045877 222.9954923659456 298.74053718674475 C303.0826970460614 262.7112479230307 382.9511096427919 254.6634356721923 477.6136989912858 253.7787385754774 " id="Ei4NxwMHIu"></path><path d="" id="Y2lPThtocH"></path><path d="M366.3541431244932 134.44694106853862 L317.11039928212864 186.03976812974835 L262.4072597153606 134.15830380683954 " id="GuRQ3xM0rA"></path><path d="M237.77609614864787 348.0897246140602 L192.14135184867533 404.21820266529994 L132.90312797384183 351.3788572079567 " id="pkpxo5D0WQ"></path></defs><g visibility="visible"><g visibility="visible"><g><g><use xlink:href="#twfv8ueODj" opacity="1" fill-opacity="0" stroke="#000000" stroke-width="50" stroke-opacity="1"></use></g></g><g><g><use xlink:href="#Ei4NxwMHIu" opacity="1" fill-opacity="0" stroke="#000000" stroke-width="35" stroke-opacity="1"></use></g></g><g><g><use xlink:href="#Y2lPThtocH" opacity="1" fill-opacity="0" stroke="#000000" stroke-width="15" stroke-opacity="1"></use></g></g><g><g><use xlink:href="#GuRQ3xM0rA" opacity="1" fill-opacity="0" stroke="#000000" stroke-width="20" stroke-opacity="1"></use></g></g><g><g><use xlink:href="#pkpxo5D0WQ" opacity="1" fill-opacity="0" stroke="#000000" stroke-width="20" stroke-opacity="1"></use></g></g></g></g></svg>